<svg width="60" height="60" viewBox="0 0 60 60" fill="none" xmlns="http://www.w3.org/2000/svg">
<rect width="60" height="60" rx="9" fill="#EFEFF2"/>
<path d="M22.0312 38.0027C25.6297 41.6106 31.2033 42.3507 35.6185 39.8067C40.0338 37.2627 42.1888 32.0696 40.872 27.1469C39.5553 22.2243 35.0953 18.8008 29.9996 18.8008" stroke="#8E8E93" stroke-width="1.8" stroke-linecap="round" stroke-linejoin="round"/>
<path d="M19.7229 34.3382C19.7229 34.3727 19.6949 34.4007 19.6604 34.4007C19.6259 34.4007 19.5979 34.3727 19.5979 34.3382C19.5979 34.3037 19.6258 34.2757 19.6603 34.2756C19.677 34.2756 19.6929 34.2822 19.7046 34.2939C19.7164 34.3057 19.723 34.3216 19.7229 34.3382" stroke="#8E8E93" stroke-width="1.8" stroke-linecap="round" stroke-linejoin="round"/>
<path d="M18.8714 30.055C18.8713 30.0895 18.8433 30.1175 18.8088 30.1175C18.7743 30.1175 18.7463 30.0895 18.7463 30.055C18.7463 30.0205 18.7743 29.9925 18.8088 29.9924C18.8254 29.9924 18.8413 29.999 18.8531 30.0107C18.8648 30.0225 18.8714 30.0384 18.8714 30.055" stroke="#8E8E93" stroke-width="1.8" stroke-linecap="round" stroke-linejoin="round"/>
<path d="M19.7229 25.7717C19.7229 25.8063 19.695 25.8343 19.6604 25.8343C19.6259 25.8343 19.5979 25.8063 19.5979 25.7718C19.5979 25.7373 19.6258 25.7093 19.6603 25.7092C19.677 25.7092 19.6929 25.7158 19.7046 25.7275C19.7164 25.7393 19.723 25.7552 19.7229 25.7718" stroke="#8E8E93" stroke-width="1.8" stroke-linecap="round" stroke-linejoin="round"/>
<path d="M22.1487 22.141C22.1487 22.1755 22.1207 22.2034 22.0862 22.2034C22.0517 22.2034 22.0237 22.1754 22.0237 22.1409C22.0237 22.1064 22.0516 22.0784 22.0861 22.0784C22.1027 22.0783 22.1187 22.0849 22.1304 22.0967C22.1422 22.1084 22.1487 22.1244 22.1487 22.141" stroke="#8E8E93" stroke-width="1.8" stroke-linecap="round" stroke-linejoin="round"/>
<path d="M25.7796 19.7152C25.7795 19.7497 25.7515 19.7776 25.717 19.7776C25.6825 19.7776 25.6545 19.7496 25.6545 19.7151C25.6545 19.6806 25.6825 19.6526 25.717 19.6526C25.7336 19.6526 25.7495 19.6591 25.7613 19.6709C25.773 19.6826 25.7796 19.6986 25.7796 19.7152" stroke="#8E8E93" stroke-width="1.8" stroke-linecap="round" stroke-linejoin="round"/>
<path d="M35.063 30.8089H29.248" stroke="#8E8E93" stroke-width="1.8" stroke-linecap="round" stroke-linejoin="round"/>
<path d="M29.2464 30.8085V23.8027" stroke="#8E8E93" stroke-width="1.8" stroke-linecap="round" stroke-linejoin="round"/>
</svg>
