<svg width="60" height="60" viewBox="0 0 60 60" fill="none" xmlns="http://www.w3.org/2000/svg">
<rect width="60" height="60" rx="9" fill="#EFEFF2"/>
<path d="M40 30.0547V40.0547" stroke="#8E8E93" stroke-width="1.8" stroke-linecap="round" stroke-linejoin="round"/>
<path d="M33.375 33.3926V40.0551" stroke="#8E8E93" stroke-width="1.8" stroke-linecap="round" stroke-linejoin="round"/>
<path d="M20 36.3047V40.0547" stroke="#8E8E93" stroke-width="1.8" stroke-linecap="round" stroke-linejoin="round"/>
<path d="M26.625 32.0547V40.0547" stroke="#8E8E93" stroke-width="1.8" stroke-linecap="round" stroke-linejoin="round"/>
<path d="M34.9237 25.6915C35.778 26.5458 35.778 27.9308 34.9237 28.7851C34.0695 29.6393 32.6844 29.6393 31.8302 28.7851C30.9759 27.9308 30.9759 26.5457 31.8302 25.6915C32.6844 24.8372 34.0695 24.8372 34.9237 25.6915" stroke="#8E8E93" stroke-width="1.8" stroke-linecap="round" stroke-linejoin="round"/>
<path d="M41.6777 20.0626C42.5319 20.9169 42.5319 22.3019 41.6777 23.1562C40.8234 24.0104 39.4383 24.0104 38.5841 23.1562C37.7298 22.3019 37.7298 20.9168 38.5841 20.0626C39.4383 19.2083 40.8234 19.2083 41.6777 20.0626" stroke="#8E8E93" stroke-width="1.8" stroke-linecap="round" stroke-linejoin="round"/>
<path d="M21.4159 26.8087C22.2702 27.6629 22.2702 29.048 21.4159 29.9023C20.5617 30.7565 19.1766 30.7565 18.3223 29.9023C17.4681 29.048 17.4681 27.6629 18.3223 26.8087C19.1766 25.9544 20.5617 25.9544 21.4159 26.8087" stroke="#8E8E93" stroke-width="1.8" stroke-linecap="round" stroke-linejoin="round"/>
<path d="M28.1718 21.1817C29.0261 22.036 29.0261 23.421 28.1718 24.2753C27.3175 25.1296 25.9325 25.1296 25.0782 24.2753C24.2239 23.421 24.2239 22.036 25.0782 21.1817C25.9325 20.3274 27.3175 20.3274 28.1718 21.1817" stroke="#8E8E93" stroke-width="1.8" stroke-linecap="round" stroke-linejoin="round"/>
<path d="M38.4633 23.0059L35.0508 25.8434" stroke="#8E8E93" stroke-width="1.8" stroke-linecap="round" stroke-linejoin="round"/>
<path d="M31.55 26.0309L28.4375 23.9434" stroke="#8E8E93" stroke-width="1.8" stroke-linecap="round" stroke-linejoin="round"/>
<path d="M21.5508 26.9684L24.9508 24.1309" stroke="#8E8E93" stroke-width="1.8" stroke-linecap="round" stroke-linejoin="round"/>
</svg>
