<svg version="1.2" xmlns="http://www.w3.org/2000/svg" viewBox="0 0 172 43" width="172" height="43"><style>.a{fill:#34e834}.b{fill:#fff}</style><path class="a" d="m29.8 10v22.8h-5v-22.8z"/><path class="b" d="m7.1 25.2v7.4h-5v-7.4c0 0 5 0 5 0z"/><path class="b" d="m14.6 16.4v16.2h-5v-16.2z"/><path class="b" d="m22 21.5v11.3h-5v-11.3z"/><path class="a" d="m52.7 24.1c-0.5 5.6-3.9 9.3-10.1 9.3-6.6 0-11-4.8-11-11.9 0-6.6 4.2-11.9 11.1-11.9 5.5 0 9.4 3.4 9.8 8.2h-4.8c-0.5-2.5-2.4-3.9-5.1-3.9-4.3 0-6 3.9-6 7.8 0 4.7 2.3 7.7 6 7.7 3 0 4.8-1.8 5.2-5.1h4.9z"/><path class="b" d="m57.4 32.6v-22.8h7l5.3 15.6 5.2-15.6h6.9v22.8h-4.7v-16.2l-5.6 16.1h-3.8l-5.6-15.9v15.9h-4.7z"/><path fill-rule="evenodd" class="b" d="m99.1 32.8h-4.2v-1.6c-1.4 1.5-3.3 2.1-5.3 2.1-3.7 0-5.9-1.9-5.9-5 0-4.1 3.4-4.8 6.5-5.2l0.7-0.1c2.9-0.4 3.9-0.7 3.9-2 0-1.5-1-2.2-3-2.2-2.1 0-2.9 0.6-3.2 2.5h-4.2c0.3-3.7 2.8-5.6 7.6-5.6h0.1c3.3 0 7 0.8 7 5.4 0 0.9 0 9.9 0 11.7zm-7.6-7.3c-1.5 0.3-3.3 0.5-3.3 2.5 0 1.4 0.9 2.2 2.5 2.2 2.3 0 4-1.2 4-3.6v-1.9c-1 0.6-2 0.6-3.2 0.8z"/><path class="b" d="m105.1 32.7v-10.3c0-1 0.8-2 2-2h4.1v-4.4h-4.2c-3.5 0-6.3 2.9-6.3 6.4v10.2c0 0.1 4.4 0.1 4.4 0.1z"/><path class="b" d="m148.9 9.9v6.1h5v4.4h-5v5.8c0 1 0.8 2 2 2h3.1v4.4h-3.1c-3.5 0-6.3-2.9-6.3-6.4v-16.3z"/><path class="b" d="m127.7 16.1l-6.2 6.1 6.9 10.3h-5.4l-4.6-7.3-1.9 1.8v5.6h-4.4v-22.8h4.4v12.2l5.8-5.9z"/><path fill-rule="evenodd" class="b" d="m135.3 33.2c-5.1 0-8.4-3.4-8.4-8.6 0-5.1 3.5-8.8 8.3-8.8 5 0 8.1 3.6 8.1 9.4v0.4h-11.8c0 2.7 1.4 4.3 3.8 4.3 1.6 0 2.7-0.7 3.3-2.4h4.3c-1 3.5-3.9 5.6-7.6 5.7zm-0.2-14.3c-1.9 0-3.4 1.4-3.6 3.7h7.1c-0.1-1.9-1.2-3.7-3.5-3.7z"/><path class="b" d="m169.4 20.9h-4.2c-0.2-1.8-1.3-2.3-3.1-2.3-1.6 0-2.6 0.6-2.6 1.7 0 1.1 1 1.4 3 1.9l1.6 0.3c2.8 0.6 5.9 1.4 5.9 5 0 3.4-2.8 5.6-7.4 5.6-4.1 0-7.7-1.7-7.7-5.8h4.2c0.2 2 1.4 2.8 3.5 2.8 1.9 0 3-0.8 3-2.1 0-1.3-1.2-1.7-3.5-2.2l-0.4-0.1c-2.9-0.6-6.5-1.1-6.5-5 0-3.2 2.6-5.1 7.1-5.1 3.8 0.1 7 1.5 7.1 5.3z"/></svg>