<svg width="49" height="49" viewBox="0 0 49 49" fill="none" xmlns="http://www.w3.org/2000/svg">
<circle cx="24.5" cy="24.5" r="24.5" fill="white"/>
<circle cx="24.5" cy="24.5" r="24.0463" stroke="#4F4E4E" stroke-opacity="0.2" stroke-width="0.907407"/>
<path d="M24.5 32.3125C27.791 32.3125 29.9883 30.584 29.9883 28.0254V28.0059C29.9883 26.0918 28.6211 24.8809 26.5215 24.6855V24.627C28.1719 24.2852 29.4609 23.1426 29.4609 21.3848V21.3652C29.4609 19.1191 27.5078 17.5957 24.4805 17.5957C21.5215 17.5957 19.5391 19.2363 19.334 21.7559L19.3242 21.873H22.0391L22.0488 21.7852C22.166 20.6133 23.0938 19.8613 24.4805 19.8613C25.8672 19.8613 26.6777 20.584 26.6777 21.7559V21.7754C26.6777 22.918 25.7207 23.6992 24.2363 23.6992H22.6641V25.7988H24.2754C25.9844 25.7988 26.9902 26.541 26.9902 27.8887V27.9082C26.9902 29.0996 26.0039 29.9395 24.5 29.9395C22.9766 29.9395 21.9707 29.1582 21.8438 28.0645L21.834 27.957H19.0117L19.0215 28.084C19.2168 30.6035 21.3164 32.3125 24.5 32.3125Z" fill="black"/>
</svg>
